<svg xmlns="http://www.w3.org/2000/svg" viewBox="0 0 2893.76 752.38"><defs><style>.cls-1{font-size:134.25px;font-family:SohoGothicPro-ExtraBold, Soho Gothic Pro;font-weight:800;}.cls-1,.cls-2{fill:#f8f9fa;}</style></defs><title>2Recurso 7sumax-erp</title><g id="Capa_2" data-name="Capa 2"><g id="Sumax_ERP" data-name="Sumax ERP"><g id="Horizontal"><text class="cls-1" transform="translate(2447.11 431.4) scale(1.05 1)">ERP</text><path id="_3" data-name="3" class="cls-2" d="M1763.46,461.58v15.86c0,29.45,15.77,37.76,39,37.76,25.54,0,50.32-9.82,62.34-15.86V414H1830.3C1784.49,414,1763.46,419.29,1763.46,461.58Z"/><path id="_2" data-name="2" class="cls-2" d="M2364.53,599.78h144.92L2361.54,372.47,2502,163.28H2327.93l-77.69,113.28-28-43.85a325,325,0,0,0,19.3,320.81l48.34-70.8Z"/><path id="_1" data-name="1" class="cls-2" d="M2783.13,110.18A379.25,379.25,0,0,0,2516,0c-100.9,0-195.76,39.13-267.11,110.18q-12,11.92-22.69,24.7l-1.06-1.66-2.4-3.74a48.08,48.08,0,0,0-40.51-22.14h-251.4l.11.16C1901.3,99.77,1866.6,96,1825.79,96c-76,0-154.8,17-199.25,31.49l-38.66,12.63v.66C1555.18,111.08,1509.65,96,1451.94,96c-41.75,0-85,11.24-125.37,32.2-29.44-21.6-67.09-32.2-113.79-32.2a263.24,263.24,0,0,0-76.56,11.33H434.91a26.63,26.63,0,0,0-18.08,7.06C381.25,105.55,318,96,246,96c-73.64,0-126.13,10.54-165.2,33.16C43.91,150.51,0,194.31,0,281.84c0,50.59,15.75,93.31,46.82,127,14,15.12,30.95,28.51,51.83,40.69l-14.32-1.06c-8-.6-13.37-1-16.9-1.19L8.28,444.13V638.92L51.74,649C84.16,656.48,160,667,227.12,667c79.43,0,139.28-13.58,183-41.53a176.16,176.16,0,0,0,33.65-27.87,148.72,148.72,0,0,0,54.33,48.08C525.13,659.87,558.28,667,596.58,667a309.7,309.7,0,0,0,92.95-14.22v2.9h939.19a18,18,0,0,0,15-8.07C1670,660.53,1700.94,667,1736.43,667a317.16,317.16,0,0,0,82.9-11.32h403.85a31.13,31.13,0,0,0,25.7-13.55l0,0c71.35,71,166.21,110.18,267.11,110.18a379.22,379.22,0,0,0,267.12-110.19c71.34-71.05,110.63-165.52,110.63-266S2854.47,181.24,2783.13,110.18ZM417.88,538.65c-28.23,50.46-94.06,72.46-190.76,72.46-61.75,0-133.29-9.82-162.67-16.62V503.11c14.31.76,88.87,7.56,152.88,7.56,42.93,0,55-9.82,55-32.48,0-19.63-9.79-22.65-55.73-39.27l-35.39-12.84c-81.34-30.2-125-68.72-125-144.24C56.17,176.87,133.74,152,246,152c66.75,0,129,9,162.24,18l.43.12v88.68l-.44.39c-54.73-4.51-91.58-7.51-144.91-7.51-33.89,0-48.2,4.53-48.2,24.92,0,16.61,9.79,20.39,48.2,34.74l41.42,15.1c51,18.88,83.77,38,103.5,62.17,18.16,22.26,25.28,48.84,25.28,83.58C433.47,498.3,428.13,520.33,417.88,538.65Zm476.19,61.13H745.7v-35.5c-38.93,25.68-88.15,46.83-149.12,46.83-70.07,0-103.22-28.35-118.78-68.71-11.67-30.28-13.43-67.32-13.43-104.23V163.28H623V438.17c0,43.8,8.08,58.15,41.87,58.15,19.09,0,46.27-9.07,69.78-18.88V163.28H894.07ZM1590.6,334V599.78H1431.4V317.34c0-33.23-1.47-52.11-36-52.11-15.4,0-37.41,6.8-54.29,15.86,1.47,12.08,1.47,24.16,1.47,36.25V599.78h-159.2V317.34c0-34-.73-52.11-33-52.11-19.07,0-40.35,9.06-55.75,16.61V599.78H936.2V163.28h147.46V198c35.95-30.21,82.9-46.07,129.12-46.07,54.29,0,85.1,17.37,104.91,47.58,46.21-34,94.63-47.58,134.25-47.58,94.38,0,127.17,47.18,135.94,114.49a367.21,367.21,0,0,1,2.72,47.12Zm429.7,187.23v78.56H1873.11V571.84c-29.29,19.63-81.11,39.27-136.68,39.27-38.37,0-68.49-9.63-89.66-28.17-24-21-36.51-53.51-36.51-96.44V468.37c0-44.32,13.29-73.45,36.51-92.57C1685.26,344.11,1751,340,1828.8,340h28.54v-21.9c0-44.55-9.77-53.62-69.1-53.62-34.54,0-94.62,2.27-144.18,7.56h0V180.65c30-9.82,104.39-28.7,181.74-28.7,131.43,0,194.51,40.78,194.51,166.14ZM2516.46,702a326.74,326.74,0,0,1-168.66-46.31q-12.59-7.54-24.43-16.15a327.93,327.93,0,0,1-81.88-86.05L2211,598.19l-1.08,1.59H2035.1l41.38-61.56,66.95-99.6,35.84-53.32-37.85-58-107.07-164h143.43l13.29,20.79,31.12,48.64A327.39,327.39,0,0,1,2516,50.35c182.3,0,329.78,148.46,327.17,330.6C2840.64,558.07,2694.32,701.8,2516.46,702Z"/></g></g></g></svg>